<?xml version="1.0" encoding="iso-8859-1"?>
<!-- Generator: Adobe Illustrator 19.0.0, SVG Export Plug-In . SVG Version: 6.00 Build 0)  -->
<svg version="1.1" id="Capa_1" xmlns="http://www.w3.org/2000/svg" xmlns:xlink="http://www.w3.org/1999/xlink" x="0px" y="0px"
	 viewBox="0 0 512 512" style="enable-background:new 0 0 512 512;" xml:space="preserve">
<path style="fill:#F9572B;" d="M504.396,100.161V411.84c0,17.939-14.554,32.493-32.504,32.493H40.098
	c-17.95,0-32.493-14.554-32.493-32.493V100.161c0-17.95,14.544-32.493,32.493-32.493h431.793
	C489.841,67.668,504.396,82.21,504.396,100.161z"/>
<path style="fill:#BCBCBC;" d="M504.396,100.159v51.023H7.607v-51.023c0-17.95,14.544-32.493,32.493-32.493h431.791
	C489.841,67.666,504.396,82.208,504.396,100.159z"/>
<circle style="fill:#F9572B;" cx="59.372" cy="108.605" r="16.736"/>
<circle style="fill:#FCC63D;" cx="115.722" cy="108.605" r="16.736"/>
<circle style="fill:#45B8C4;" cx="172.062" cy="108.605" r="16.736"/>
<g>
	<path style="fill:#FCC63D;" d="M125.439,338.277H71.126c-5.657,0-9.956-3.848-9.956-10.41c0-1.81,29.868-111.338,29.868-111.338
		c2.716-5.658,7.694-7.694,12.446-7.694c5.204,0,18.258,3.512,18.258,10.301c0,1.131,0.056,3.503-0.625,4.86l-22.157,86.899h26.478
		v-23.761c0-6.563,7.467-9.278,14.709-9.278c7.469,0,14.71,2.716,14.71,9.278v23.761h10.635c6.111,0,9.279,6.79,9.279,13.805
		c0,6.789-4.527,13.578-9.279,13.578h-10.635v26.703c0,6.111-7.242,9.278-14.71,9.278c-7.242,0-14.709-3.168-14.709-9.278
		L125.439,338.277L125.439,338.277z"/>
	<path style="fill:#FCC63D;" d="M401.496,338.277h-54.313c-5.657,0-9.956-3.848-9.956-10.41c0-1.81,29.868-111.338,29.868-111.338
		c2.716-5.658,7.694-7.694,12.446-7.694c5.204,0,18.258,3.512,18.258,10.301c0,1.131,0.056,3.503-0.625,4.86l-22.157,86.899h26.478
		v-23.761c0-6.563,7.467-9.278,14.709-9.278c7.469,0,14.71,2.716,14.71,9.278v23.761h10.635c6.111,0,9.279,6.79,9.279,13.805
		c0,6.789-4.527,13.578-9.279,13.578h-10.635v26.703c0,6.111-7.242,9.278-14.71,9.278c-7.242,0-14.709-3.168-14.709-9.278
		L401.496,338.277L401.496,338.277z"/>
	<path style="fill:#FCC63D;" d="M200.614,323.794v-63.137c0-37.792,23.082-51.823,52.954-51.823c29.87,0,53.179,14.03,53.179,51.823
		v63.137c0,37.792-23.309,51.823-53.179,51.823C223.696,375.617,200.614,361.586,200.614,323.794z M277.329,260.657
		c0-17.877-9.052-26.024-23.76-26.024c-14.936,0-23.535,8.146-23.535,26.024v63.137c0,17.877,8.599,26.024,23.535,26.024
		c14.709,0,23.76-8.146,23.76-26.024V260.657z"/>
</g>
<path d="M59.375,84.264c-13.421,0-24.341,10.919-24.341,24.34c0,13.421,10.919,24.34,24.341,24.34c13.42,0,24.34-10.919,24.34-24.34
	C83.714,95.183,72.795,84.264,59.375,84.264z M59.375,117.736c-5.036,0-9.133-4.097-9.133-9.132c0-5.035,4.097-9.132,9.133-9.132
	s9.132,4.097,9.132,9.132C68.507,113.639,64.41,117.736,59.375,117.736z"/>
<path d="M115.719,132.944c13.42,0,24.34-10.919,24.34-24.34c0-13.422-10.919-24.34-24.34-24.34
	c-13.421,0-24.341,10.919-24.341,24.34S102.297,132.944,115.719,132.944z M115.719,99.471c5.036,0,9.132,4.097,9.132,9.132
	c0,5.035-4.096,9.132-9.132,9.132s-9.133-4.097-9.133-9.132C106.586,103.568,110.683,99.471,115.719,99.471z"/>
<path d="M196.403,108.604c0-13.422-10.919-24.34-24.34-24.34s-24.34,10.919-24.34,24.34c0,13.421,10.919,24.34,24.34,24.34
	S196.403,122.025,196.403,108.604z M162.932,108.604c0-5.036,4.096-9.132,9.132-9.132s9.132,4.097,9.132,9.132
	c0,5.035-4.096,9.132-9.132,9.132S162.932,113.639,162.932,108.604z"/>
<path d="M471.891,60.064H40.098c-22.11,0-40.097,17.988-40.097,40.097v51.005c0,0.006-0.001,0.013-0.001,0.019
	c0,0.006,0.001,0.013,0.001,0.019v260.634c0,22.11,17.987,40.097,40.097,40.097h336.552c4.2,0,7.604-3.405,7.604-7.604
	s-3.404-7.604-7.604-7.604H40.098c-13.724,0-24.889-11.166-24.889-24.889v-253.05h54.244c4.2,0,7.604-3.405,7.604-7.604
	c0-4.199-3.404-7.604-7.604-7.604H15.209v-43.421c0-13.725,11.166-24.889,24.889-24.889h431.793
	c13.731,0,24.901,11.166,24.901,24.889v43.421H96.751c-4.2,0-7.604,3.405-7.604,7.604c0,4.199,3.404,7.604,7.604,7.604h400.041
	v253.05c0,13.725-11.171,24.889-24.901,24.889h-69.893c-4.2,0-7.604,3.405-7.604,7.604s3.404,7.604,7.604,7.604h69.893
	c22.115,0,40.109-17.988,40.109-40.097V100.161C512,78.052,494.007,60.064,471.891,60.064z"/>
<path d="M140.147,381.863c13.138,0,22.314-6.942,22.314-16.882v-19.099h3.032c9.949,0,16.882-11.163,16.882-21.182
	c0-12.405-7.1-21.409-16.882-21.409h-3.032v-16.157c0-10.097-8.968-16.882-22.314-16.882c-13.345,0-22.313,6.785-22.313,16.882
	v16.157h-9.087l19.597-76.86c1.016-2.639,1.007-5.474,1.002-7.079v-0.216c0-12.498-17.126-17.905-25.862-17.905
	c-8.604,0-15.639,4.377-19.302,12.007c-0.199,0.415-0.359,0.847-0.481,1.29C53.564,325.04,53.564,326.543,53.564,327.869
	c0,10.438,7.385,18.014,17.56,18.014h46.708v19.099C117.835,374.763,127.218,381.863,140.147,381.863z M71.126,330.673
	c-1.13,0-2.155-0.178-2.328-2.176c1.803-7.71,18.257-68.454,29.366-109.2c0.766-1.351,2.176-2.859,5.32-2.859
	c3.221,0,8.983,1.924,10.654,3.477c-0.003,0.4-0.015,0.879-0.054,1.188c-0.135,0.329-0.247,0.668-0.336,1.014l-22.157,86.898
	c-0.58,2.275-0.076,4.69,1.365,6.544c1.44,1.854,3.656,2.938,6.004,2.938h26.477c4.2,0,7.604-3.405,7.604-7.604l0.003-23.738
	c0.531-0.527,2.865-1.698,7.102-1.698c4.286,0,6.607,1.148,7.106,1.651c0,0.007,0,0.015,0,0.023v23.761
	c0,4.199,3.404,7.604,7.604,7.604l10.602,0.001c0.5,0.422,1.709,2.5,1.709,6.2c0,2.825-1.466,5.24-2.298,5.974h-10.013
	c-4.2,0-7.604,3.405-7.604,7.604v26.528c-0.573,0.574-2.979,1.85-7.106,1.85c-3.881,0-6.457-1.252-7.105-1.899v-26.479
	c0-4.199-3.404-7.604-7.604-7.604H71.126V330.673z"/>
<path d="M416.205,381.863c13.139,0,22.315-6.942,22.315-16.882v-19.099h3.031c9.949,0,16.882-11.163,16.882-21.182
	c0-12.405-7.1-21.409-16.882-21.409h-3.031v-16.157c0-10.097-8.968-16.882-22.315-16.882c-13.345,0-22.313,6.785-22.313,16.882
	v16.157h-9.087l19.597-76.86c1.016-2.639,1.007-5.474,1.002-7.079v-0.216c0-12.498-17.126-17.905-25.862-17.905
	c-8.603,0-15.638,4.377-19.301,12.007c-0.199,0.415-0.359,0.847-0.481,1.29c0,0-3.819,14.003-8.726,32.081
	c-1.1,4.053,1.294,8.231,5.346,9.331c4.051,1.1,8.23-1.293,9.331-5.346c4.23-15.583,7.652-28.138,8.512-31.296
	c0.767-1.351,2.176-2.858,5.319-2.858c3.221,0,8.983,1.924,10.654,3.477c-0.003,0.4-0.015,0.879-0.054,1.188
	c-0.135,0.329-0.247,0.668-0.336,1.014l-22.157,86.898c-0.58,2.275-0.076,4.69,1.365,6.544c1.44,1.854,3.656,2.938,6.004,2.938
	h26.477c4.2,0,7.604-3.405,7.604-7.604l0.003-23.738c0.531-0.527,2.865-1.698,7.102-1.698c4.286,0,6.608,1.148,7.107,1.651
	c0,0.007,0,0.015,0,0.023v23.761c0,4.199,3.404,7.604,7.604,7.604l10.601,0.001c0.5,0.422,1.709,2.5,1.709,6.2
	c0,2.825-1.466,5.24-2.298,5.974h-10.012c-4.2,0-7.604,3.405-7.604,7.604v26.528c-0.573,0.574-2.979,1.85-7.107,1.85
	c-3.881,0-6.457-1.252-7.105-1.899v-26.479c0-4.199-3.404-7.604-7.604-7.604h-54.312c-1.129,0-2.154-0.178-2.327-2.172
	c0.585-2.482,3.269-12.935,14.679-55.117c1.096-4.054-1.301-8.229-5.355-9.325c-4.05-1.095-8.228,1.301-9.326,5.354
	c-15.23,56.311-15.23,56.982-15.23,58.453c0,10.438,7.385,18.014,17.56,18.014h46.708v19.099
	C393.892,374.763,403.277,381.863,416.205,381.863z"/>
<path d="M193.01,260.657v63.137c0,37.766,22.073,59.426,60.558,59.426c38.629,0,60.783-21.66,60.783-59.426v-63.137
	c0-37.766-22.155-59.426-60.783-59.426C215.083,201.231,193.01,222.891,193.01,260.657z M299.144,260.657v63.137
	c0,29.341-15.334,44.219-45.575,44.219c-30.092,0-45.35-14.877-45.35-44.219v-63.137c0-29.341,15.259-44.219,45.35-44.219
	C283.81,216.439,299.144,231.316,299.144,260.657z"/>
<path d="M222.43,260.657v63.137c0,21.371,11.349,33.628,31.139,33.628c19.64,0,31.365-12.571,31.365-33.628v-63.137
	c0-21.057-11.724-33.628-31.365-33.628C233.779,227.029,222.43,239.286,222.43,260.657z M269.725,260.657v63.137
	c0,9.109-1.92,18.42-16.157,18.42c-14.001,0-15.931-8.853-15.931-18.42v-63.137c0-9.568,1.929-18.42,15.931-18.42
	C267.805,242.237,269.725,251.549,269.725,260.657z"/>
<g>
</g>
<g>
</g>
<g>
</g>
<g>
</g>
<g>
</g>
<g>
</g>
<g>
</g>
<g>
</g>
<g>
</g>
<g>
</g>
<g>
</g>
<g>
</g>
<g>
</g>
<g>
</g>
<g>
</g>
</svg>
